<svg xmlns="http://www.w3.org/2000/svg" width="12" height="6" viewBox="0 0 12 6" fill="none">
<path d="M10.3216 5.98774C10.0356 5.98768 9.76124 5.8825 9.55899 5.69532L6.00684 2.40894L2.45469 5.69532C2.35518 5.79064 2.23615 5.86667 2.10455 5.91898C1.97294 5.97128 1.8314 5.99881 1.68817 5.99996C1.54494 6.00111 1.4029 5.97586 1.27033 5.92568C1.13776 5.8755 1.01732 5.8014 0.916041 5.70769C0.814759 5.61399 0.734662 5.50256 0.680424 5.37991C0.626186 5.25726 0.598894 5.12585 0.600138 4.99334C0.601383 4.86082 0.63114 4.72987 0.687674 4.60811C0.744207 4.48635 0.826385 4.37623 0.929411 4.28416L5.2442 0.292199C5.44649 0.105104 5.72081 0 6.00684 0C6.29287 0 6.56719 0.105104 6.76948 0.292199L11.0843 4.28416C11.2351 4.42374 11.3378 4.60154 11.3794 4.7951C11.421 4.98867 11.3996 5.1893 11.318 5.37163C11.2364 5.55396 11.0981 5.70981 10.9208 5.81948C10.7435 5.92914 10.5349 5.98769 10.3216 5.98774Z" fill="#111928"/>
</svg>