<svg width="16" height="16" viewBox="0 0 16 16" fill="none" xmlns="http://www.w3.org/2000/svg">
<path d="M13.4336 8.45898L9.37109 12.5215C9.21875 12.6738 9.01562 12.75 8.8125 12.75C8.58398 12.75 8.38086 12.6738 8.22852 12.5215C7.89844 12.2168 7.89844 11.6836 8.22852 11.3789L10.8945 8.6875H3.125C2.66797 8.6875 2.3125 8.33203 2.3125 7.875C2.3125 7.44336 2.66797 7.0625 3.125 7.0625H10.8945L8.22852 4.39648C7.89844 4.0918 7.89844 3.55859 8.22852 3.25391C8.5332 2.92383 9.06641 2.92383 9.37109 3.25391L13.4336 7.31641C13.7637 7.62109 13.7637 8.1543 13.4336 8.45898Z" fill="#1F2A37"/>
</svg>
