<svg width="20" height="21" viewBox="0 0 20 21" fill="none" xmlns="http://www.w3.org/2000/svg">
<path d="M17.75 17.2188C18.0625 17.5312 18.0625 18 17.75 18.2812C17.625 18.4375 17.4375 18.5 17.25 18.5C17.0312 18.5 16.8438 18.4375 16.6875 18.2812L12.5 14.0938C11.375 15 9.96875 15.5 8.46875 15.5C4.90625 15.5 2 12.5938 2 9C2 5.4375 4.875 2.5 8.46875 2.5C12.0312 2.5 14.9688 5.4375 14.9688 9C14.9688 10.5312 14.4688 11.9375 13.5625 13.0312L17.75 17.2188ZM3.5 9C3.5 11.7812 5.71875 14 8.5 14C11.25 14 13.5 11.7812 13.5 9C13.5 6.25 11.25 4 8.5 4C5.71875 4 3.5 6.25 3.5 9Z" fill="#4B5563"/>
</svg>
